/* XPM */
static char *b58a75c3e3bd4a36b3764a34d36aafaek7Ux2VUrCDJQf7DI[] = {
/* columns rows colors chars-per-pixel */
"32 32 3 1 ",
"  c #40B080",
". c #70C0A0",
"X c #A0D0C0",
/* pixels */
"......  ......XX......  ........",
"......  ......XX......  ........",
"....XXXX......................  ",
"....XXXX......................  ",
"..  XXXX........................",
"..  XXXX........................",
"..................XX............",
"..................XX............",
"........................XXXX....",
"........................XXXX....",
"..................  ....XXXX....",
"..................  ....XXXX....",
"..XX....  ....................  ",
"..XX....  ....................  ",
"................................",
"................................",
"......  ..............  ......XX",
"......  ..............  ......XX",
"..............  ....XXXX........",
"..............  ....XXXX........",
"..................  XXXX........",
"..................  XXXX........",
"..XX............................",
"..XX............................",
"........XXXX....................",
"........XXXX....................",
"..  ....XXXX....................",
"..  ....XXXX....................",
"..............  ..XX....  ......",
"..............  ..XX....  ......",
"................................",
"................................"
};
