/* XPM */
static char *_42592a76e3f4f1ecd5b07c5d98e076eT4k4HVtdmR5fpuPE[] = {
/* columns rows colors chars-per-pixel */
"32 32 4 1 ",
"  c #385000",
". c #18A068",
"X c #70C0A0",
"o c #A0D0C0",
/* pixels */
"XXXXXXXXXXXXXXXXXXXXXXXX....XXXX",
"XXXXXXXXXXXXXXXXXXXXXXXX....XXXX",
"XXXX....  ..XXXXXXXX....oooo..XX",
"XXXX....  ..XXXXXXXX....oooo..XX",
"XXXX..ooooXX  XXXX..oooooo..XXXX",
"XXXX..ooooXX  XXXX..oooooo..XXXX",
"XXXXXX  XXXX..    XXXXoo  ..XXXX",
"XXXXXX  XXXX..    XXXXoo  ..XXXX",
"XX....    ......  ....    ....XX",
"XX....    ......  ....    ....XX",
"..ooooXX..  ..  ....  ..oooooo  ",
"..ooooXX..  ..  ....  ..oooooo  ",
"....XXXXXX..    ..  XXXXoooo  XX",
"....XXXXXX..    ..  XXXXoooo  XX",
"XX  XXXX....    ..  ..XXoo..XXXX",
"XX  XXXX....    ..  ..XXoo..XXXX",
"XX..    ........  ......    ..XX",
"XX..    ........  ......    ..XX",
"..          ..    ..        ....",
"..          ..    ..        ....",
"....  XX....  ..    ....XXXX  XX",
"....  XX....  ..    ....XXXX  XX",
"XX  ooXXXX..  ....  ..XXXXXXXX  ",
"XX  ooXXXX..  ....  ..XXXXXXXX  ",
"XX..XXoo    ..XXXX..  ....    ..",
"XX..XXoo    ..XXXX..  ....    ..",
"XX          XX..XXXX        ....",
"XX          XX..XXXX        ....",
"XXXX..    ..    XX  ..    ....XX",
"XXXX..    ..    XX  ..    ....XX",
"XXXXXXXXXXXXXX    ....XXXXXXXXXX",
"XXXXXXXXXXXXXX    ....XXXXXXXXXX"
};
