/* XPM */
static char *result[] = {
/* columns rows colors chars-per-pixel */
"32 32 5 1 ",
"  c #385000",
". c #18A068",
"X c #FFC20E",
"o c #70C0A0",
"O c #F5E49C",
/* pixels */
"oooooooooooooooooooooooo....oooo",
"oooooooooooooooooooooooo....oooo",
"oooo....  ..oooooooo....OOOO..oo",
"oooo....  ..oooooooo....OOOO..oo",
"oooo..OOOOXX  oooo..OOOOOO..oooo",
"oooo..OOOOXX  oooo..OOOOOO..oooo",
"oooooo  XXXX..    XXXXOO  ..oooo",
"oooooo  XXXX..    XXXXOO  ..oooo",
"oo....    ......  ....    ....oo",
"oo....    ......  ....    ....oo",
"..OOOOXX..  ..  ....  ..OOOOOO  ",
"..OOOOXX..  ..  ....  ..OOOOOO  ",
"....XXXXXX..    ..  XXXXOOOO  oo",
"....XXXXXX..    ..  XXXXOOOO  oo",
"oo  XXXX....    ..  ..XXOO..oooo",
"oo  XXXX....    ..  ..XXOO..oooo",
"oo..    ........  ......    ..oo",
"oo..    ........  ......    ..oo",
"..          ..    ..        ....",
"..          ..    ..        ....",
"....  XX....  ..    ....XXXX  oo",
"....  XX....  ..    ....XXXX  oo",
"oo  OOXXXX..  ....  ..XXXXXXXX  ",
"oo  OOXXXX..  ....  ..XXXXXXXX  ",
"oo..XXOO    ..XXXX..  ....    ..",
"oo..XXOO    ..XXXX..  ....    ..",
"oo          XX..XXXX        ....",
"oo          XX..XXXX        ....",
"oooo..    ..    XX  ..    ....oo",
"oooo..    ..    XX  ..    ....oo",
"oooooooooooooo    ....oooooooooo",
"oooooooooooooo    ....oooooooooo"
};
