/* XPM */
static char *_685e7cd0ea44cc0d2591dcaaaf7ecbaCD2kKOPyVGF7brR4[] = {
/* columns rows colors chars-per-pixel */
"32 32 11 1 ",
"  c black",
". c #501000",
"X c #484878",
"o c #913828",
"O c #C95F47",
"+ c #40B080",
"@ c #70C0A0",
"# c #9898B8",
"$ c #A0D0C0",
"% c #C8C8D8",
"& c #F8F8F8",
/* pixels */
"@@@@@@++@@@@@@$$@@@@@@++@@@@@@@@",
"@@@@@@++@@@@@@$$@@@@@@++@@@@@@@@",
"@@@@$$$$@@@@@@@@@@@@@@@@@@@@@@++",
"@@@@$$$$@@@@@@@@@@@@@@@@@@@@@@++",
"@@++$$$$@@@@@@@@@@@@@@@@@@@@@@@@",
"@@++$$$$@@@@@@@@@@@@@@@@@@@@@@@@",
"@@@@@@@@@@@@........@@@@@@@@@@@@",
"@@@@@@@@@@@@........@@@@@@@@@@@@",
"@@@@@@@@@@..OOOOOOOO..@@$$$$@@@@",
"@@@@@@@@@@..OOOOOOOO..@@$$$$@@@@",
"@@@@@@@@..OO&&OOooooOO..$$$$@@@@",
"@@@@@@@@..OO&&OOooooOO..$$$$@@@@",
"@@$$@@..OOooOOooooooooOO..@@@@++",
"@@$$@@..OOooOOooooooooOO..@@@@++",
"@@@@@@  OOoooo    ooooOO  @@@@@@",
"@@@@@@  OOoooo    ooooOO  @@@@@@",
"@@@@@@XX  oo  ####  oo  XX@@@@$$",
"@@@@@@XX  oo  ####  oo  XX@@@@$$",
"@@@@@@XX&&    ####    &&XX@@@@@@",
"@@@@@@XX&&    ####    &&XX@@@@@@",
"@@@@@@@@XX&&&&    &&&&XX@@@@@@@@",
"@@@@@@@@XX&&&&    &&&&XX@@@@@@@@",
"@@$$@@@@@@XX%%&&&&%%XX@@@@@@@@@@",
"@@$$@@@@@@XX%%&&&&%%XX@@@@@@@@@@",
"@@@@@@@@$$$$XXXXXXXX@@@@@@@@@@@@",
"@@@@@@@@$$$$XXXXXXXX@@@@@@@@@@@@",
"@@++@@@@$$$$@@@@@@@@@@@@@@@@@@@@",
"@@++@@@@$$$$@@@@@@@@@@@@@@@@@@@@",
"@@@@@@@@@@@@@@++@@$$@@@@++@@@@@@",
"@@@@@@@@@@@@@@++@@$$@@@@++@@@@@@",
"@@@@@@@@@@@@@@@@@@@@@@@@@@@@@@@@",
"@@@@@@@@@@@@@@@@@@@@@@@@@@@@@@@@"
};
