/* XPM */
static char *_b4523d90b69449afbda8c18ea3fc92dTIsuyBRZuqS9U9rf[] = {
/* columns rows colors chars-per-pixel */
"64 32 8 1 ",
"  c #464646",
". c #604050",
"X c #805858",
"o c #987070",
"O c #70C0A0",
"+ c #808088",
"@ c #B89088",
"# c #D8B0A0",
/* pixels */
"                                                                ",
"                                                                ",
"                                                                ",
"                                                                ",
"                                                                ",
"                                                                ",
"                                                                ",
"                                                                ",
"                                                                ",
"                                                                ",
"                                                                ",
"                                                                ",
"                                                                ",
"                                                                ",
"                                                                ",
"                                                                ",
"XX##@@@@######@@######@@....XX..XX##@@@@######@@######@@....XX..",
"XX##@@@@######@@######@@....XX..XX##@@@@######@@######@@....XX..",
"XX@@XX@@####@@########XXXX......XX@@XX@@####@@########XXXX......",
"XX@@XX@@####@@########XXXX......XX@@XX@@####@@########XXXX......",
"....XXXX@@@@########XXooXX..........XXXX@@@@########XXooXX......",
"....XXXX@@@@########XXooXX..........XXXX@@@@########XXooXX......",
"..XXXX....XX@@@@@@XXoo....XX......XXXX....XX@@@@@@XXoo....XX....",
"..XXXX....XX@@@@@@XXoo....XX......XXXX....XX@@@@@@XXoo....XX....",
"++....XX......XXXXoooo..XX..XX++++....XX......XXXXoooo..XX..XX++",
"++....XX......XXXXoooo..XX..XX++++....XX......XXXXoooo..XX..XX++",
"OO++....XX....XXXXXXXX....XX..OOOO++....XX....XXXXXXXX....XX..OO",
"OO++....XX....XXXXXXXX....XX..OOOO++....XX....XXXXXXXX....XX..OO",
"OOOOOO++++......XXXXXX......++OOOOOOOO++++......XXXXXX......++OO",
"OOOOOO++++......XXXXXX......++OOOOOOOO++++......XXXXXX......++OO",
"OOOOOOOOOOOO++++........++OOOOOOOOOOOOOOOOOO++++........++OOOOOO",
"OOOOOOOOOOOO++++........++OOOOOOOOOOOOOOOOOO++++........++OOOOOO"
};
