/* XPM */
static char *a2a4596f8b3e45aef5f729971056fe624sqbLcOlnf7t3VYw[] = {
/* columns rows colors chars-per-pixel */
"32 32 9 1 ",
"  c black",
". c gray25",
"X c #705090",
"o c #9078B0",
"O c #40B080",
"+ c #70C0A0",
"@ c #B890E0",
"# c #E0B0F0",
"$ c #A0D0C0",
/* pixels */
"++++++OO++++++$$++++++OO++++++++",
"++++++OO++++++$$++++++OO++++++++",
"++++$$$$++++++++++++++++++++++OO",
"++++$$$$++++++++++++++++++++++OO",
"++OO$$$$  ....++++....  ++++++++",
"++OO$$$$  ....++++....  ++++++++",
"++++++  oo@@@@....@@@@oo  ++++++",
"++++++  oo@@@@....@@@@oo  ++++++",
"++++++..@@####oooo##@@@@..$$++++",
"++++++..@@####oooo##@@@@..$$++++",
"++++  oo@@####@@@@@@@@@@oo  ++++",
"++++  oo@@####@@@@@@@@@@oo  ++++",
"++..  oo@@@@@@@@@@@@@@@@oo  ..OO",
"++..  oo@@@@@@@@@@@@@@@@oo  ..OO",
"..@@@@XXoo  @@@@@@@@  ooXX@@@@..",
"..@@@@XXoo  @@@@@@@@  ooXX@@@@..",
"..@@@@oooooooooooooooooooo@@@@..",
"..@@@@oooooooooooooooooooo@@@@..",
"++..oooooo..        ..oooooo..++",
"++..oooooo..        ..oooooo..++",
"..oooooooooooooooooooooooooooo..",
"..oooooooooooooooooooooooooooo..",
"  oooooooooooooooooooooooooooo  ",
"  oooooooooooooooooooooooooooo  ",
"++  ..oooooooooooooooooooo..  ++",
"++  ..oooooooooooooooooooo..  ++",
"++OO++....            ....++++++",
"++OO++....            ....++++++",
"++++++++++++++OO++$$++++OO++++++",
"++++++++++++++OO++$$++++OO++++++",
"++++++++++++++++++++++++++++++++",
"++++++++++++++++++++++++++++++++"
};
