/* XPM */
static char *_e6fd257bb254525eff08ceb5f5f5f2c1thRYY4vAv8rOCLs[] = {
/* columns rows colors chars-per-pixel */
"32 32 10 1 ",
"  c #604050",
". c #805858",
"X c #987070",
"o c #40B080",
"O c #70C0A0",
"+ c #808088",
"@ c #B89088",
"# c #D8B0A0",
"$ c #A0D0C0",
"% c #E8D0C8",
/* pixels */
"OOOOOOooOOOOXXXXXXXXXXXXOOOOOOOO",
"OOOOOOooOOOOXXXXXXXXXXXXOOOOOOOO",
"OOOO$$$$OOXX@@##@@##@@XXXXOOOOoo",
"OOOO$$$$OOXX@@##@@##@@XXXXOOOOoo",
"OOoo$$XXXX@@%%@@######@@@@XXOOOO",
"OOoo$$XXXX@@%%@@######@@@@XXOOOO",
"OOOO..@@XXXX@@%%@@####@@##@@XXOO",
"OOOO..@@XXXX@@%%@@####@@##@@XXOO",
"OO..@@XX@@%%@@@@XX####XX@@##@@XX",
"OO..@@XX@@%%@@@@XX####XX@@##@@XX",
"OO..@@%%%%%%%%XX@@####@@XX..XX..",
"OO..@@%%%%%%%%XX@@####@@XX..XX..",
"..@@%%%%%%######@@..@@##@@XX..  ",
"..@@%%%%%%######@@..@@##@@XX..  ",
"..@@%%%%##########..XX@@..  ..  ",
"..@@%%%%##########..XX@@..  ..  ",
"..##@@@@######@@######@@    ..  ",
"..##@@@@######@@######@@    ..  ",
"..@@..@@####@@########....      ",
"..@@..@@####@@########....      ",
"    ....@@@@########..XX..      ",
"    ....@@@@########..XX..      ",
"  ....    ..@@@@@@..XX    ..    ",
"  ....    ..@@@@@@..XX    ..    ",
"++    ..      ....XXXX  ..  ..++",
"++    ..      ....XXXX  ..  ..++",
"OO++    ..    ........    ..  OO",
"OO++    ..    ........    ..  OO",
"OOOOOO++++      ......      ++OO",
"OOOOOO++++      ......      ++OO",
"OOOOOOOOOOOO++++        ++OOOOOO",
"OOOOOOOOOOOO++++        ++OOOOOO"
};
